<?xml version="1.0" standalone="no"?>
<!DOCTYPE svg PUBLIC "-//W3C//DTD SVG 20010904//EN"
 "http://www.w3.org/TR/2001/REC-SVG-20010904/DTD/svg10.dtd">
<svg version="1.0" xmlns="http://www.w3.org/2000/svg"
 width="256.000000pt" height="256.000000pt" viewBox="0 0 256.000000 256.000000"
 preserveAspectRatio="xMidYMid meet">
<metadata>
Created by potrace 1.11, written by Peter Selinger 2001-2013
</metadata>
<g transform="translate(0.000000,256.000000) scale(0.100000,-0.100000)"
fill="#000000" stroke="none">
<path d="M0 1280 l0 -1280 1280 0 1280 0 0 1280 0 1280 -1280 0 -1280 0 0
-1280z m2170 0 c0 -3 -95 -100 -210 -215 l-210 -210 -212 213 -212 213 214
214 213 213 209 -211 c114 -116 208 -213 208 -217z m-472 -467 c-3 -14 -406
-423 -416 -423 -4 0 -102 95 -217 210 l-210 210 215 215 215 215 208 -208
c114 -114 206 -212 205 -219z"/>
<path d="M1684 1511 c-33 -14 -71 -70 -85 -124 -15 -62 -7 -212 14 -252 51
-100 168 -123 242 -50 43 44 55 87 55 200 0 114 -11 152 -55 195 -30 29 -43
34 -92 37 -32 1 -68 -1 -79 -6z m93 -79 c22 -14 33 -63 33 -148 0 -108 -17
-154 -58 -154 -44 0 -57 34 -57 154 0 81 4 107 18 129 17 27 41 34 64 19z"/>
<path d="M1084 825 c-4 -8 -4 -22 0 -30 4 -13 36 -15 201 -15 l195 0 0 30 0
30 -195 0 c-165 0 -197 -2 -201 -15z"/>
</g>
</svg>
